<svg xmlns="http://www.w3.org/2000/svg" xmlns:xlink="http://www.w3.org/1999/xlink" version="1.1" viewBox="0 0 172 172">
  <g fill="none" fill-rule="nonzero" stroke="none" stroke-width="1" stroke-linecap="butt" stroke-linejoin="miter" stroke-miterlimit="10" stroke-dasharray="" stroke-dashoffset="0" font-family="none" font-weight="none" font-size="none" text-anchor="none" style="mix-blend-mode: normal">
    <path d="M0,172v-172h172v172z" fill="none"/>
    <g fill="#ffffff">
      <path d="M86,10.75c-2.6875,0 -4.23281,1.14488 -5.375,2.6875c-1.14219,1.54262 -0.98442,10.84373 -10.15686,12.21973c-12.8785,1.92963 -51.65564,5.5339 -51.65564,25.40527c0,10.75 5.375,16.125 10.75,16.125h112.875c5.375,0 10.75,-5.375 10.75,-16.125c0,-19.87137 -38.77714,-23.47565 -51.65564,-25.40527c-6.87933,-1.032 -8.51203,-6.52185 -9.38001,-9.85242c-0.28933,-1.11019 -0.49131,-1.98165 -0.77685,-2.36731c-1.14219,-1.54262 -2.6875,-2.6875 -5.375,-2.6875zM26.875,72.62024c0.01344,30.84981 11.05524,68.9961 50.7738,75.70142c0.37894,0.06181 4.55913,7.55335 8.3512,7.55335c3.79206,0 7.96957,-7.48885 8.3512,-7.55335c38.62206,-6.51988 50.12418,-42.76871 50.74231,-73.12939l-77.89551,-1.69544c0.09944,34.20113 5.45898,46.4801 5.45898,46.4801l-3.97351,4.30945c0,0 -17.44372,-11.2938 -17.61572,-51.13599z"/>
    </g>
  </g>
</svg>